<?xml version="1.0" encoding="UTF-8"?>
<svg width="200" height="60" viewBox="0 0 200 60" fill="none" xmlns="http://www.w3.org/2000/svg">
    <g fill="#FFFFFF">
        <path d="M40.5,30c0,5.8-4.7,10.5-10.5,10.5S19.5,35.8,19.5,30s4.7-10.5,10.5-10.5S40.5,24.2,40.5,30z M30,22.5
            c-4.1,0-7.5,3.4-7.5,7.5s3.4,7.5,7.5,7.5s7.5-3.4,7.5-7.5S34.1,22.5,30,22.5z"/>
        <path d="M60,30c0,16.6-13.4,30-30,30S0,46.6,0,30S13.4,0,30,0S60,13.4,60,30z M3,30c0,14.9,12.1,27,27,27s27-12.1,27-27
            S44.9,3,30,3S3,15.1,3,30z"/>
        <path d="M80.4,15.6h3.2v28.8h-3.2V15.6z"/>
        <path d="M95.2,15.6h3.2v28.8h-3.2V15.6z"/>
        <path d="M110,15.6h3.2v28.8H110V15.6z"/>
        <path d="M124.8,15.6h3.2v28.8h-3.2V15.6z"/>
        <path d="M139.6,15.6h3.2v28.8h-3.2V15.6z"/>
        <path d="M154.4,15.6h3.2v28.8h-3.2V15.6z"/>
        <path d="M169.2,15.6h3.2v28.8h-3.2V15.6z"/>
        <path d="M184,15.6h3.2v28.8H184V15.6z"/>
    </g>
</svg> 