<?xml version="1.0" encoding="UTF-8"?> <svg xmlns="http://www.w3.org/2000/svg" xmlns:xlink="http://www.w3.org/1999/xlink" width="152.386" height="56.309" viewBox="0 0 152.386 56.309"><defs><linearGradient id="linear-gradient" x1="-13.625" y1="-0.532" x2="-13.495" y2="-1.601" gradientUnits="objectBoundingBox"><stop offset="0" stop-color="#fff"></stop><stop offset="0.055" stop-color="#edf6fb"></stop><stop offset="0.325" stop-color="#9acbe7"></stop><stop offset="0.563" stop-color="#58a9d7"></stop><stop offset="0.762" stop-color="#2890cc"></stop><stop offset="0.914" stop-color="#0b81c5"></stop><stop offset="1" stop-color="#007bc2"></stop></linearGradient><linearGradient id="linear-gradient-2" x1="2.052" y1="2.477" x2="2.263" y2="1.451" gradientUnits="objectBoundingBox"><stop offset="0.061" stop-color="#9ce061"></stop><stop offset="0.31" stop-color="#4abf00"></stop><stop offset="0.465" stop-color="#17a700"></stop><stop offset="0.527" stop-color="#169f00"></stop><stop offset="0.625" stop-color="#138700"></stop><stop offset="0.748" stop-color="#0d6200"></stop><stop offset="0.89" stop-color="#062e00"></stop><stop offset="1"></stop></linearGradient><linearGradient id="linear-gradient-3" x1="0.096" y1="0.803" x2="0.896" y2="0.035" gradientUnits="objectBoundingBox"><stop offset="0" stop-color="#004f9e"></stop><stop offset="0.085" stop-color="#1e6684"></stop><stop offset="0.208" stop-color="#418165"></stop><stop offset="0.337" stop-color="#5f984c"></stop><stop offset="0.474" stop-color="#76aa38"></stop><stop offset="0.62" stop-color="#86b62a"></stop><stop offset="0.784" stop-color="#90be22"></stop><stop offset="1" stop-color="#93c01f"></stop></linearGradient><linearGradient id="linear-gradient-4" x1="0.096" y1="0.803" x2="0.896" y2="0.035" gradientUnits="objectBoundingBox"><stop offset="0" stop-color="#0068ad"></stop><stop offset="0.09" stop-color="#0f779b"></stop><stop offset="0.533" stop-color="#58c048"></stop><stop offset="0.847" stop-color="#85ed14"></stop><stop offset="1" stop-color="#97ff00"></stop></linearGradient><linearGradient id="linear-gradient-5" x1="0.331" y1="1.289" x2="0.461" y2="0.536" gradientUnits="objectBoundingBox"><stop offset="0" stop-color="#1d1d1b"></stop><stop offset="0.411" stop-color="#1d1d1b"></stop><stop offset="0.494" stop-color="#50504f"></stop><stop offset="0.589" stop-color="#858584"></stop><stop offset="0.683" stop-color="#b1b1b0"></stop><stop offset="0.773" stop-color="#d3d3d2"></stop><stop offset="0.858" stop-color="#ebebeb"></stop><stop offset="0.936" stop-color="#fafafa"></stop><stop offset="1" stop-color="#fff"></stop></linearGradient></defs><g id="logo-1" transform="translate(-5.024 -2.906)"><path id="Path_1" data-name="Path 1" d="M153.788,44.6A28.045,28.045,0,0,0,147.32,9.8c3.546,7.521,6.357,20.891-7.037,33.792-16.493,12.566-31.654,2.769-36.923-1.517a28.021,28.021,0,0,0,50.428,2.53Z" fill="url(#linear-gradient)"></path><path id="Path_2" data-name="Path 2" d="M134.786,3.668a28.54,28.54,0,0,0-31.635,16.644c6.2-5.651,19.015-12.37,34.661-3.447,16.641,10.991,12.047,29.387,9.473,35.711a28.149,28.149,0,0,0,9.548-15.96A27.844,27.844,0,0,0,134.786,3.668Z" fill="url(#linear-gradient-2)"></path><path id="Path_3" data-name="Path 3" d="M113,25.447C119.282,7.622,139.915,7.859,146.716,9.1a28.727,28.727,0,0,0-17.76-6.1A28.285,28.285,0,0,0,100.435,31.03a28.168,28.168,0,0,0,22.734,27.452C116.335,53.576,107.427,43.107,113,25.447Z" fill="url(#linear-gradient-3)"></path><path id="Path_4" data-name="Path 4" d="M113,25.447C119.282,7.622,139.915,7.859,146.716,9.1a28.727,28.727,0,0,0-17.76-6.1A28.285,28.285,0,0,0,100.435,31.03a28.168,28.168,0,0,0,22.734,27.452C116.335,53.576,107.427,43.107,113,25.447Z" fill="url(#linear-gradient-4)"></path><g id="Group_2" data-name="Group 2"><g id="Group_1" data-name="Group 1"><path id="Path_5" data-name="Path 5" d="M101.28,32.355c0-15.668,13.01-28.368,29.046-28.368a29.391,29.391,0,0,1,16.587,5.091l.024,0A29.371,29.371,0,0,0,128.85,2.906c-16.036,0-29.046,12.7-29.046,28.368a28.132,28.132,0,0,0,12.339,23.194A28.062,28.062,0,0,1,101.28,32.355Z" fill="url(#linear-gradient-5)"></path></g></g><g id="Group_4" data-name="Group 4"><path id="Path_6" data-name="Path 6" d="M17.126,47.627,7.131,30.886H5.024V50.559H6.908L6.88,34.079l9.847,16.48h2.252V30.886H17.1Z" fill="#82ba41"></path><path id="Path_7" data-name="Path 7" d="M31.111,37.308a5.112,5.112,0,0,0-3.879-1.347,8.331,8.331,0,0,0-5.018,1.494l-.156.2.783,1.059.207.262.255-.207a7.176,7.176,0,0,1,3.752-1.07,3.642,3.642,0,0,1,2.767.877,3.085,3.085,0,0,1,.649,2.449l0,.756h-.542c-2.368,0-8.656,0-8.656,4.741,0,2.586,1.975,4.323,4.916,4.323a9.028,9.028,0,0,0,4.282-1.089v.8h1.887V41.338C32.356,39.153,32.066,38.213,31.111,37.308Zm-1.364,6.15h.722L30.45,48a8.538,8.538,0,0,1-3.962,1.112c-2.414,0-3.275-1.319-3.275-2.555C23.213,44.413,25.229,43.458,29.747,43.458Z" fill="#82ba41"></path><path id="Path_8" data-name="Path 8" d="M42.769,48.123,37.783,36.3H35.731l6.027,14.29-.216.519a10.048,10.048,0,0,1-1.823,3.249,3.548,3.548,0,0,1-2.389.848,5.566,5.566,0,0,1-1.771-.264l-.411-.113-.552,1.58.255.126a6.63,6.63,0,0,0,2.508.435,5.484,5.484,0,0,0,3.848-1.484,11.056,11.056,0,0,0,2.211-3.941l5.635-14.8.162-.44-2.074.072Z" fill="#82ba41"></path><rect id="Rectangle_1" data-name="Rectangle 1" width="1.879" height="14.254" transform="translate(51.407 36.305)" fill="#82ba41"></rect><path id="Path_9" data-name="Path 9" d="M73.286,35.961a8.224,8.224,0,0,0-5.015,1.492l-.161.2.792,1.065.22.263.237-.215A7,7,0,0,1,73.11,37.7a3.7,3.7,0,0,1,2.77.876,3.121,3.121,0,0,1,.643,2.449l0,.757h-.535c-2.367,0-8.655,0-8.655,4.741,0,2.586,1.97,4.323,4.9,4.323a9.14,9.14,0,0,0,4.285-1.087v.8H78.41V41.337c0-2.153-.3-3.132-1.242-4.03A5.121,5.121,0,0,0,73.286,35.961Zm2.517,7.5h.718l-.011,4.534a8.59,8.59,0,0,1-3.97,1.116c-2.409,0-3.268-1.319-3.268-2.555C69.272,44.413,71.285,43.458,75.8,43.458Z" fill="#82ba41"></path><path id="Path_10" data-name="Path 10" d="M57.5,36.867a3.19,3.19,0,0,1,.8-2.12,2.506,2.506,0,0,1,1.813-.592,4.053,4.053,0,0,1,1.976.506l.288.142.789-1.424-.2-.168a4.825,4.825,0,0,0-2.91-.794,4.142,4.142,0,0,0-4.429,4.21l-.042,3.064.042,1.073v9.794H57.5V41.09h7.534V39.357H57.5v-2.49Z" fill="#82ba41"></path><path id="Path_11" data-name="Path 11" d="M85.07,37.951h4.7V36.3h-4.7V32.426H83.188V36.3H80.7v1.648h2.485v8.467c-.014,1.226-.03,2.613.854,3.451a3.967,3.967,0,0,0,2.951.977,6.016,6.016,0,0,0,2.323-.418l.142-.059V48.577l-.488.17a5,5,0,0,1-1.859.361,2.175,2.175,0,0,1-1.577-.448c-.468-.471-.466-1.348-.462-2.459v-8.25Z" fill="#82ba41"></path><path id="Path_12" data-name="Path 12" d="M52.4,32.831a1.108,1.108,0,0,0-1.241,1.216A1.149,1.149,0,0,0,52.4,35.352a1.17,1.17,0,0,0,1.265-1.305A1.13,1.13,0,0,0,52.4,32.831Z" fill="#82ba41"></path><path id="Path_13" data-name="Path 13" d="M48.767,32.831a1.11,1.11,0,0,0-1.243,1.216,1.15,1.15,0,0,0,1.243,1.305,1.17,1.17,0,0,0,1.265-1.305A1.13,1.13,0,0,0,48.767,32.831Z" fill="#408ecc"></path><path id="Path_14" data-name="Path 14" d="M39.912,23.465a7.193,7.193,0,0,0,3.486,2.8,4.537,4.537,0,0,0,2.331-2.04,6.556,6.556,0,0,0,.911-3.333,4.867,4.867,0,0,0-.95-3.1A4.31,4.31,0,0,0,42.5,16.3c-.073,0-.149,0-.224,0a3.384,3.384,0,0,0-3.506,3.641A6.253,6.253,0,0,0,39.912,23.465Z" fill="none"></path><path id="Path_15" data-name="Path 15" d="M23.679,23.209c0,2.5-1.108,3.722-3.388,3.722H10.343c-2.3,0-3.418-1.219-3.418-3.722V18.262H5.079v5.181c0,3.159,1.905,5.2,4.85,5.2H20.435c3.121,0,5.061-1.994,5.061-5.2v-8.5H23.679v8.268Z" fill="#408ecc"></path><g id="Group_3" data-name="Group 3"><path id="Path_16" data-name="Path 16" d="M46.639,20.89a4.867,4.867,0,0,0-.95-3.1A4.31,4.31,0,0,0,42.5,16.3c-.073,0-.149,0-.224,0a3.384,3.384,0,0,0-3.506,3.641,6.269,6.269,0,0,0,1.141,3.528,7.193,7.193,0,0,0,3.486,2.8,4.537,4.537,0,0,0,2.331-2.04A6.567,6.567,0,0,0,46.639,20.89Z" fill="none"></path><path id="Path_17" data-name="Path 17" d="M53.623,14.941v8.268c0,2.539-1.086,3.722-3.417,3.722H48.7l-.231.022v0q-.416.007-.785.007a14.462,14.462,0,0,1-2.254-.119,6.486,6.486,0,0,0,2.093-2.462,7.99,7.99,0,0,0,.845-3.643,6.259,6.259,0,0,0-1.319-4.1,5.7,5.7,0,0,0-4.325-1.924l-.185,0a5.586,5.586,0,0,0-3.885,1.281,4.753,4.753,0,0,0-1.516,3.341c-.2,3.04,1.159,5.558,4.048,7.493a23.687,23.687,0,0,1-3.195.138c-.52,0-1.091,0-1.717-.016l-3.056-.017c-1.226,0-1.8-.635-1.8-2V9.2H29.571V24.963c0,2.408,1.168,3.68,3.377,3.68h7.86a5.678,5.678,0,0,0,2.548-.544,8.2,8.2,0,0,0,2.542.544h4.491a4.87,4.87,0,0,0,5.085-5.2v-8.5H53.623ZM43.4,26.263a7.2,7.2,0,0,1-3.486-2.8,6.269,6.269,0,0,1-1.141-3.528A3.384,3.384,0,0,1,42.276,16.3c.075,0,.151,0,.224,0a4.307,4.307,0,0,1,3.188,1.491,4.873,4.873,0,0,1,.95,3.1,6.568,6.568,0,0,1-.911,3.333A4.527,4.527,0,0,1,43.4,26.263Z" fill="#408ecc"></path></g><path id="Path_18" data-name="Path 18" d="M82.094,23.209c0,2.5-1.119,3.722-3.422,3.722H76.047c-2.3,0-3.42-1.17-3.42-3.574V14.941H70.785v8.268c0,2.5-1.108,3.722-3.39,3.722H63.151c-1.228,0-1.8-.635-1.8-2V9.2H59.5V24.963c0,2.408,1.168,3.68,3.382,3.68H67.54a4.732,4.732,0,0,0,4.214-2,4.64,4.64,0,0,0,4.086,2h3a4.874,4.874,0,0,0,5.1-5.2V9.2H82.094Z" fill="#408ecc"></path><rect id="Rectangle_2" data-name="Rectangle 2" width="1.842" height="19.444" transform="translate(87.975 9.198)" fill="#408ecc"></rect><path id="Path_19" data-name="Path 19" d="M13.852,14.581a1.17,1.17,0,0,0,1.264-1.306,1.128,1.128,0,0,0-1.264-1.214,1.11,1.11,0,0,0-1.245,1.214A1.152,1.152,0,0,0,13.852,14.581Z" fill="#408ecc"></path><path id="Path_20" data-name="Path 20" d="M17.062,14.581a1.171,1.171,0,0,0,1.265-1.306,1.129,1.129,0,0,0-1.265-1.214,1.108,1.108,0,0,0-1.244,1.214A1.15,1.15,0,0,0,17.062,14.581Z" fill="#408ecc"></path><path id="Path_21" data-name="Path 21" d="M42.36,13.658a1.171,1.171,0,0,0,1.265-1.306,1.129,1.129,0,0,0-1.265-1.215,1.109,1.109,0,0,0-1.243,1.215A1.15,1.15,0,0,0,42.36,13.658Z" fill="#408ecc"></path><path id="Path_22" data-name="Path 22" d="M71.586,13.658a1.17,1.17,0,0,0,1.264-1.306,1.129,1.129,0,0,0-1.264-1.215,1.11,1.11,0,0,0-1.245,1.215A1.151,1.151,0,0,0,71.586,13.658Z" fill="#408ecc"></path></g></g></svg> 